<?xml version="1.0" encoding="UTF-8"?>
<svg id="Layer_2" data-name="Layer 2" xmlns="http://www.w3.org/2000/svg" viewBox="0 0 153.2 95.19">
  <defs>
    <style>
      .cls-1, .cls-2 {
        fill: #013459;
      }

      .cls-2 {
        font-family: SpaceGrotesk-Bold, 'Space Grotesk';
        font-size: 20px;
        font-variation-settings: 'wght' 700;
        font-weight: 700;
      }

      .cls-3 {
        letter-spacing: -.02em;
      }

      .cls-4 {
        letter-spacing: -.05em;
      }

      .cls-5 {
        letter-spacing: -.05em;
      }

      .cls-6 {
        letter-spacing: -.04em;
      }

      .cls-7 {
        letter-spacing: -.04em;
      }

      .cls-8 {
        letter-spacing: -.03em;
      }

      .cls-9 {
        letter-spacing: -.03em;
      }
    </style>
  </defs>
  <g id="Layer_1-2" data-name="Layer 1">
    <g>
      <text class="cls-2" transform="translate(0 89.71)"><tspan class="cls-3" x="0" y="0">HO</tspan><tspan class="cls-6" x="25.83" y="0">S</tspan><tspan class="cls-4" x="37.11" y="0">T</tspan><tspan class="cls-8" x="47.87" y="0"> </tspan><tspan class="cls-3" x="52.31" y="0">AND</tspan><tspan class="cls-4" x="90.5" y="0"> </tspan><tspan class="cls-5" x="94.58" y="0">T</tspan><tspan class="cls-9" x="105.38" y="0">O</tspan><tspan class="cls-3" x="118.37" y="0">A</tspan><tspan class="cls-7" x="130.65" y="0">S</tspan><tspan class="cls-4" x="141.93" y="0">T</tspan></text>
      <g>
        <path class="cls-1" d="M114.01,43.36c-.47-3.62-1.68-7.42-1.68-7.42-.74-2.34-.98-3.55-1.82-5.33-.6-1.26-.91-1.89-1.59-2.31-.35-.22-.95-.48-1.44-1.13-.23-.33-.36-.62-.41-.74-.48-1.16-2.13-4.86-3.54-7.06-.63-.98-1.19-1.59-2.01-2.53-5.56-6.41-12.74-9.32-13.33-9.56-5.53-2.16-10.23-2.25-11.42-2.25-.74-.01-12.11.12-21.18,8.18-3.32,2.94-4.58,4.73-6.17,7.3-.91,1.46-2.53,5.65-3.21,6.31-.79.76-2.27.83-3.36,1.68-3.49,2.69-3.7,9.73-3.07,13.75,1.67,10.7,13.54-2.08,13.4-8.92-.06-2.76-2.41-4.02-2.09-6.06.82-5.35,9.21-13.43,13.98-15.76,14.1-6.88,33.91,1.06,37.78,16.45.46,1.82-.74,2.63-.79,4.18-.06,1.52,3.26,12.45,4.1,13.75.18.27.72.72.84.55-2.08-9.94-2.37-12.21-2.18-12.24.42-.11,3.55,11.78,4.07,11.65.5-.12-1.9-11.16-1.38-11.28.53-.13,3.42,10.61,3.96,10.47.13-.02.11-.65-.11-2.16-.75-5.51-2.06-9.45-1.94-9.5.11,0,1.09,2.34,4.31,10.83.08-.08.18-.2.23-.35.08-.19.07-.36.06-.48ZM41.81,32.1c.32-.74,1.17-2.78,2.34-2.42-1.47,4-2.53,11.27,1.67,13.71-6.39,5.14-5.65-7.46-4.01-11.3Z"/>
        <rect class="cls-1" x="75.54" y="2.93" width="2.14" height="2.81"/>
        <path class="cls-1" d="M77.68,4.41l1.81-1.52c0-1.59-1.29-2.88-2.88-2.88s-2.88,1.29-2.88,2.88l1.81,1.57"/>
        <g>
          <path class="cls-1" d="M120.2,51.18c-7.91,5.15-25.88,7.32-43.6,7.23-17.72.09-35.69-2.07-43.6-7.23-5.83-3.79-3.22-7.24,2.17-9.17-2.28,3.95,3.72,6.01,6.74,6.98,7.37,2.38,20.92,3.82,34.69,3.87,13.77-.06,27.33-1.49,34.69-3.87,3.02-.97,9.02-3.03,6.74-6.98,5.39,1.93,8,5.38,2.17,9.17Z"/>
          <path class="cls-1" d="M125.8,51.08c-.53,1.48-1.72,2.74-2.88,3.77-.36.33-.76.63-1.15.91-.91.63-1.89,1.16-2.88,1.62-2.18,1.04-4.47,1.84-6.79,2.5-2.71.79-5.47,1.4-8.24,1.9-3.08.55-6.2.97-9.32,1.29-3.32.35-6.66.57-10,.71-2.65.11-5.3.16-7.94.15-2.64,0-5.29-.04-7.94-.15-3.34-.14-6.67-.36-10-.71-3.12-.32-6.24-.74-9.32-1.29-2.77-.49-5.54-1.1-8.24-1.9-2.32-.66-4.61-1.47-6.79-2.5-1-.47-1.98-.99-2.88-1.62-.39-.28-.78-.58-1.15-.91-1.16-1.03-2.34-2.29-2.88-3.77-.17-.59-.63-2.28.42-2.34-.22,0,.32,1.55.39,1.68,1.3,2.27,4.22,3.66,6.53,4.64,2.8,1.19,5.75,2.01,8.71,2.69,3.3.76,6.66,1.33,10.01,1.79,3.25.44,6.52.78,9.78,1.05,2.65.21,5.31.36,7.98.45.55.02,1.11.04,1.67.05,1.23.02,2.47,0,3.71,0,1.23,0,2.47.02,3.71,0,.56,0,1.12-.03,1.67-.05,2.67-.08,5.33-.24,7.98-.45,3.27-.26,6.53-.61,9.78-1.05,3.35-.47,6.7-1.04,10.01-1.79,2.96-.68,5.91-1.5,8.71-2.69,2.31-.98,5.23-2.37,6.53-4.64.07-.13.62-1.67.39-1.68,1.05.07.59,1.76.42,2.34Z"/>
        </g>
      </g>
    </g>
  </g>
</svg>